<svg width="454" height="190" fill="none" xmlns="http://www.w3.org/2000/svg"><path d="M0 134.694L79.245 12.173 106.797.529l3.148 7.41-81.868 126.755h75.046V89.972l24.141-1.852.787 7.145v92.883L103.91 190l-.787-7.145v-41.546H.787L0 134.694zm170.322-41.017C170.322 50.014 189.739 0 234.347 0c45.395 0 63.238 47.632 63.238 91.295-.524 44.457-17.843 98.176-63.763 98.176-44.083 0-63.5-51.602-63.5-95.794zm25.19-.53c0 38.636 8.922 89.179 38.31 89.179 29.914 0 39.36-50.808 39.36-90.501 0-36.783-10.758-84.15-38.835-84.15-28.601 0-38.835 47.631-38.835 85.473zm130.437 41.547l79.245-122.521L432.746.529l3.148 7.41-81.868 126.755h75.046V89.972l24.141-1.852.787 7.145v92.883L429.859 190l-.787-7.145v-41.546H326.736l-.787-6.615z" fill="#44413F"/></svg>