<svg width="43" height="43" fill="none" xmlns="http://www.w3.org/2000/svg"><path d="M31.892 35.506L28 37.545a.702.702 0 01-1.017-.735l.743-4.32-3.148-3.058a.697.697 0 01.389-1.192l4.35-.63 1.946-3.93a.702.702 0 011.257 0l1.946 3.93 4.35.63a.7.7 0 01.39 1.192l-3.149 3.058.742 4.318a.698.698 0 01-1.016.737l-3.891-2.04zm-20.784 0l-3.891 2.039a.702.702 0 01-1.018-.735l.744-4.32-3.148-3.058a.697.697 0 01.389-1.192l4.35-.63 1.945-3.93a.702.702 0 011.258 0l1.946 3.93 4.35.63a.7.7 0 01.389 1.192l-3.148 3.058.742 4.318a.698.698 0 01-1.016.737l-3.892-2.04zM21.5 16.589l-3.892 2.039a.702.702 0 01-1.017-.735l.743-4.32-3.148-3.058a.697.697 0 01.39-1.192l4.35-.63 1.945-3.93a.702.702 0 011.258 0l1.946 3.93 4.35.63a.699.699 0 01.389 1.192l-3.148 3.058.741 4.318a.698.698 0 01-1.015.737l-3.892-2.04z" stroke="#C29C9B" stroke-width="1.6" stroke-linecap="round" stroke-linejoin="round"/></svg>