<svg width="42" height="42" fill="none" xmlns="http://www.w3.org/2000/svg"><path d="M5.25 15.75A1.75 1.75 0 017 14h28a1.75 1.75 0 011.75 1.75v3.5A1.75 1.75 0 0135 21H7a1.75 1.75 0 01-1.75-1.75v-3.5zM21 14v22.75" stroke="#C29C9B" stroke-width="1.6" stroke-linecap="round" stroke-linejoin="round"/><path d="M33.25 21v12.25a3.5 3.5 0 01-3.5 3.5h-17.5a3.5 3.5 0 01-3.5-3.5V21m4.375-7a4.375 4.375 0 110-8.75c1.688-.03 3.343.79 4.747 2.35C19.277 9.162 20.367 11.393 21 14c.633-2.608 1.723-4.839 3.128-6.4 1.404-1.56 3.059-2.38 4.747-2.35a4.375 4.375 0 010 8.75" stroke="#C29C9B" stroke-width="1.6" stroke-linecap="round" stroke-linejoin="round"/></svg>