<svg width="42" height="42" fill="none" xmlns="http://www.w3.org/2000/svg"><path d="M15.75 21a5.25 5.25 0 1010.5 0 5.25 5.25 0 00-10.5 0z" stroke="#C29C9B" stroke-width="1.6" stroke-linecap="round" stroke-linejoin="round"/><path d="M21 3.5a5.25 5.25 0 015.25 5.25c0 .983-.453 2.524-1.357 4.62l-1.267 2.38 3.08-3.313c.873-1.05 1.613-1.75 2.222-2.108a5.194 5.194 0 017.123 1.923 5.27 5.27 0 01-1.908 7.171c-.654.38-1.732.693-3.23.937L26.25 21l4.2.57c1.75.254 2.971.59 3.692 1.008a5.27 5.27 0 01.572 8.71 5.193 5.193 0 01-5.787.384c-.609-.354-1.35-1.058-2.222-2.11l-3.08-3.312 1.267 2.38c.903 2.098 1.358 3.638 1.358 4.62a5.25 5.25 0 11-10.5 0c0-.983.453-2.523 1.358-4.62l1.267-2.38-3.08 3.313c-.874 1.052-1.614 1.75-2.223 2.109A5.193 5.193 0 015.95 29.75a5.27 5.27 0 011.907-7.172c.655-.381 1.733-.692 3.23-.938L15.75 21l-4.2-.569c-1.75-.254-2.972-.59-3.693-1.008A5.27 5.27 0 015.95 12.25a5.194 5.194 0 017.122-1.923c.61.355 1.35 1.057 2.223 2.108l3.08 3.315c-1.75-4.011-2.625-6.344-2.625-7A5.25 5.25 0 0121 3.5z" stroke="#C29C9B" stroke-width="1.6" stroke-linecap="round" stroke-linejoin="round"/></svg>