<svg width="48" height="48" fill="none" xmlns="http://www.w3.org/2000/svg"><path d="M10 33.792c0 1.038.421 2.035 1.172 2.77A4.043 4.043 0 0014 37.707c1.06 0 2.078-.412 2.828-1.147A3.876 3.876 0 0018 33.791a3.875 3.875 0 00-1.172-2.769A4.043 4.043 0 0014 29.875c-1.06 0-2.078.413-2.828 1.147A3.875 3.875 0 0010 33.792zm20 0c0 1.038.421 2.035 1.172 2.77A4.043 4.043 0 0034 37.707c1.06 0 2.078-.412 2.828-1.147A3.876 3.876 0 0038 33.791a3.875 3.875 0 00-1.172-2.769A4.043 4.043 0 0034 29.875c-1.06 0-2.078.413-2.828 1.147A3.875 3.875 0 0030 33.792zm-20 0H6v-7.834M4 10.292h22v23.5m-8 0h12m8 0h4v-11.75m0 0H26m16 0l-6-9.792H26M6 18.125h8" stroke="#7E7E7E" stroke-width="1.4" stroke-linecap="round" stroke-linejoin="round"/></svg>