<svg width="78" height="89" fill="none" xmlns="http://www.w3.org/2000/svg"><path fill-rule="evenodd" clip-rule="evenodd" d="M38.996 2.7c-3.542 0-6.933 1.375-9.428 3.814-2.495 2.437-3.89 5.736-3.89 9.17v8.205h26.636v-8.206c0-3.433-1.395-6.732-3.89-9.17C45.93 4.076 42.538 2.7 38.996 2.7zm16.018 21.189v-8.206c0-4.17-1.695-8.162-4.703-11.1C47.305 1.645 43.234 0 38.996 0c-4.238 0-8.31 1.645-11.315 4.583-3.008 2.938-4.703 6.93-4.703 11.1v8.206h-11.7m11.7 2.7h-11.7c-1.22 0-2.425.258-3.531.754a8.412 8.412 0 00-2.877 2.12 8.14 8.14 0 00-1.7 3.085 7.995 7.995 0 00-.224 3.489l6.136 38.948a12.902 12.902 0 004.48 7.875A13.523 13.523 0 0022.245 86h33.502a13.53 13.53 0 008.686-3.138c2.414-2.023 4-4.819 4.482-7.876l6.136-38.949a7.996 7.996 0 00-.225-3.489 8.14 8.14 0 00-1.7-3.085 8.411 8.411 0 00-2.876-2.12 8.622 8.622 0 00-3.531-.754H55.014v12.983a1.35 1.35 0 11-2.7 0V26.59H25.678v12.983a1.35 1.35 0 11-2.7 0V26.59zm32.036-2.7h11.704c1.6 0 3.182.338 4.638.991a11.11 11.11 0 013.8 2.801 10.84 10.84 0 012.262 4.11c.443 1.515.546 3.107.3 4.666l-6.136 38.948a15.602 15.602 0 01-5.414 9.526A16.222 16.222 0 0155.747 88.7H22.245a16.222 16.222 0 01-10.418-3.77 15.602 15.602 0 01-5.412-9.525L.278 36.457a10.696 10.696 0 01.3-4.666 10.84 10.84 0 012.264-4.11 11.11 11.11 0 013.799-2.8 11.322 11.322 0 014.637-.992" fill="#373431"/><path fill-rule="evenodd" clip-rule="evenodd" d="M25.576 51.364a1.35 1.35 0 011.909.064c.758.811 1.767 1.249 2.797 1.249 1.031 0 2.04-.437 2.798-1.248a1.35 1.35 0 011.972 1.844c-1.248 1.335-2.962 2.104-4.77 2.104-1.807 0-3.521-.77-4.77-2.105a1.35 1.35 0 01.064-1.908zm16.819 0a1.35 1.35 0 011.908.064c.758.811 1.767 1.249 2.798 1.249 1.03 0 2.039-.437 2.797-1.248a1.35 1.35 0 011.972 1.844c-1.248 1.335-2.962 2.104-4.77 2.104-1.807 0-3.521-.77-4.77-2.105a1.35 1.35 0 01.065-1.908zm-3.703 10.72c-1.644 0-3.252.724-4.462 2.067a1.35 1.35 0 01-2.008-1.805c1.69-1.877 4.013-2.962 6.47-2.962 2.456 0 4.779 1.085 6.468 2.96l.001.002a1.35 1.35 0 01-2.007 1.806c-1.21-1.344-2.82-2.068-4.462-2.068z" fill="#373431"/></svg>