<svg width="102" height="89" fill="none" xmlns="http://www.w3.org/2000/svg"><path fill-rule="evenodd" clip-rule="evenodd" d="M18.03 2.071A28.094 28.094 0 0128.621 0c3.635 0 7.235.704 10.593 2.071a27.684 27.684 0 018.98 5.902l.005.004 2.798 2.78 2.798-2.78.004-.004a27.684 27.684 0 018.98-5.902A28.094 28.094 0 0173.373 0c3.635 0 7.235.704 10.593 2.071a27.685 27.685 0 018.979 5.9c10.911 10.703 11.441 28.663-2.037 42.13l-.01.008-38.955 38.205a1.35 1.35 0 01-1.89 0L11.087 50.1C-2.392 36.634-1.861 18.673 9.05 7.972a27.685 27.685 0 018.978-5.9zm10.592.629c-3.286 0-6.54.636-9.574 1.872a24.983 24.983 0 00-8.104 5.325l-.002.002c-9.733 9.545-10.47 25.775 2.05 38.287l.004.004 38.002 37.27 38.001-37.27.005-.004c12.519-12.512 11.783-28.742 2.05-38.287l-.002-.002a24.985 24.985 0 00-8.104-5.325A25.394 25.394 0 0073.373 2.7c-3.287 0-6.54.636-9.575 1.872a24.985 24.985 0 00-8.102 5.323l-.002.002-3.745 3.72a1.35 1.35 0 01-1.903 0l-3.745-3.72-.002-.002a24.985 24.985 0 00-8.102-5.323A25.394 25.394 0 0028.622 2.7z" fill="#373431"/><path fill-rule="evenodd" clip-rule="evenodd" d="M38.342 38.364a1.35 1.35 0 011.909.064c.758.811 1.767 1.249 2.797 1.249 1.031 0 2.04-.437 2.798-1.248a1.35 1.35 0 011.972 1.844c-1.248 1.335-2.962 2.104-4.77 2.104-1.807 0-3.521-.77-4.77-2.105a1.35 1.35 0 01.064-1.908zm16.819 0a1.35 1.35 0 011.908.064c.758.811 1.767 1.249 2.798 1.249 1.03 0 2.039-.437 2.797-1.248a1.35 1.35 0 011.972 1.844c-1.248 1.335-2.962 2.104-4.77 2.104-1.807 0-3.521-.77-4.77-2.105a1.35 1.35 0 01.065-1.908zm-3.703 10.72c-1.644 0-3.252.724-4.462 2.067a1.35 1.35 0 01-2.008-1.805c1.69-1.877 4.013-2.962 6.47-2.962 2.456 0 4.779 1.085 6.468 2.96l.001.002a1.35 1.35 0 01-2.007 1.806c-1.21-1.344-2.82-2.068-4.462-2.068z" fill="#373431"/></svg>