<svg width="192" height="40" fill="none" xmlns="http://www.w3.org/2000/svg"><path d="M1.095 29.814a6.364 6.364 0 01-.672.028c-.094 0-.15-.028-.168-.084 0-.056.056-.084.168-.084.634-.056 1.101-.27 1.4-.644.298-.392.448-1.017.448-1.876V12.818c0-.859-.15-1.475-.448-1.848-.299-.392-.766-.616-1.4-.672-.112 0-.168-.028-.168-.084.018-.056.074-.084.168-.084.28 0 .504.01.672.028l.672.028h7.84c1.698 0 3.052-.084 4.06-.252.373-.037.588-.056.644-.056.149 0 .261.047.336.14.074.075.121.233.14.476.018 1.81.205 3.93.56 6.356.018.13 0 .205-.056.224-.056.019-.103-.037-.14-.168-.392-1.55-.831-2.819-1.316-3.808-.486-1.008-.99-1.699-1.512-2.072-.318-.243-.971-.41-1.96-.504-.971-.093-2.464-.14-4.48-.14-.616 0-.924.467-.924 1.4v7.476c0 .205.046.383.14.532.093.15.242.224.448.224a34.23 34.23 0 003.024-.112c.354-.037.634-.121.84-.252.224-.15.429-.42.616-.812.186-.392.392-.98.616-1.764.018-.112.056-.168.112-.168.074 0 .102.056.084.168a16.884 16.884 0 00-.168 2.492c0 1.4.102 2.688.308 3.864.018.093-.01.15-.084.168-.056 0-.094-.056-.112-.168-.355-1.176-.691-1.979-1.008-2.408-.299-.43-.7-.672-1.204-.728-.616-.056-1.624-.084-3.024-.084-.392 0-.588.243-.588.728v6.3c0 .859.196 1.465.588 1.82.41.355 1.054.56 1.932.616.149 0 .224.028.224.084 0 .019-.028.037-.084.056a.311.311 0 01-.14.028 9.78 9.78 0 01-.84-.028l-.952-.028h-3.92l-.672.028zm18.107-.028c-.336 0-.84.028-1.512.084-.093 0-.149-.028-.168-.084 0-.075.056-.112.168-.112.672-.037 1.176-.233 1.512-.588.336-.373.504-1.017.504-1.932V12.818c0-.915-.168-1.55-.504-1.904-.336-.373-.84-.579-1.512-.616-.112 0-.168-.028-.168-.084.019-.075.075-.112.168-.112.672.056 1.176.084 1.512.084h3.752c.411 0 .98-.028 1.708-.084.112 0 .178.037.196.112.019.056-.037.084-.168.084-.765.037-1.344.243-1.736.616-.373.355-.56.99-.56 1.904v15.624c0 .467.066.775.196.924.15.15.383.224.7.224 3.79 0 6.254-.644 7.392-1.932.448-.485.812-1.176 1.092-2.072.299-.915.56-2.11.784-3.584.019-.112.056-.159.112-.14.075 0 .103.047.084.14-.392 3.099-.588 5.497-.588 7.196 0 .355-.018.588-.056.7-.037.13-.14.196-.308.196-.13 0-.69-.056-1.68-.168-.97-.093-2.482-.14-4.536-.14h-6.384zm25.551.42c-1.848 0-3.509-.42-4.984-1.26a8.928 8.928 0 01-3.416-3.5c-.82-1.512-1.232-3.21-1.232-5.096 0-1.867.467-3.603 1.4-5.208a10.586 10.586 0 013.864-3.892c1.662-.97 3.528-1.456 5.6-1.456 1.886 0 3.575.43 5.068 1.288a9.012 9.012 0 013.5 3.5c.84 1.493 1.26 3.164 1.26 5.012 0 1.885-.476 3.64-1.428 5.264s-2.268 2.921-3.948 3.892c-1.68.97-3.574 1.456-5.684 1.456zm1.848-.756c2.11 0 3.752-.644 4.928-1.932 1.195-1.288 1.792-3.08 1.792-5.376 0-1.867-.42-3.696-1.26-5.488-.84-1.792-1.969-3.257-3.388-4.396-1.4-1.139-2.902-1.708-4.508-1.708-2.053 0-3.668.635-4.844 1.904-1.157 1.25-1.736 2.977-1.736 5.18 0 1.885.411 3.743 1.232 5.572.822 1.83 1.923 3.332 3.304 4.508 1.4 1.157 2.894 1.736 4.48 1.736zM84.81 10.102c.093 0 .14.037.14.112 0 .056-.047.084-.14.084-.486.037-.878.233-1.176.588-.3.336-.598.961-.896 1.876l-5.236 15.456-.028.056a.48.48 0 00-.028.196c0 .112.018.205.056.28l.112.224a.39.39 0 01.028.168c0 .112-.056.187-.168.224l-2.044.728a.62.62 0 01-.196.028c-.112 0-.187-.065-.224-.196l-4.424-13.188-3.92 11.452a.699.699 0 00-.056.308c0 .13.009.215.028.252l.112.224c.037.112.056.177.056.196 0 .093-.056.159-.168.196l-2.072.728a.39.39 0 01-.168.028c-.131 0-.215-.065-.252-.196l-5.768-17.164c-.3-.915-.598-1.54-.896-1.876-.3-.355-.691-.55-1.176-.588-.094 0-.14-.028-.14-.084 0-.075.046-.112.14-.112.56.056.96.084 1.204.084h3.78c.354 0 .896-.028 1.624-.084.093 0 .14.037.14.112.018.056-.028.084-.14.084-1.251.075-1.876.56-1.876 1.456 0 .299.065.635.196 1.008l5.096 15.12c.037.075.074.112.112.112.056 0 .093-.037.112-.112l3.696-10.808c.093-.28.14-.485.14-.616 0-.112-.047-.327-.14-.644l.028.028-1.036-3.08c-.3-.915-.654-1.54-1.064-1.876-.392-.355-.943-.55-1.652-.588-.112 0-.168-.028-.168-.084.018-.075.084-.112.196-.112.728.056 1.278.084 1.652.084h3.948c.354 0 .896-.028 1.624-.084.112 0 .168.037.168.112.018.056-.038.084-.168.084-.58.037-1.036.168-1.372.392-.336.205-.504.56-.504 1.064 0 .299.065.635.196 1.008l5.04 15.092c.018.112.056.168.112.168a.373.373 0 00.168-.14v-.028l5.096-15.092c.112-.373.168-.7.168-.98 0-.933-.682-1.428-2.044-1.484-.131 0-.196-.028-.196-.084.018-.075.084-.112.196-.112.784.056 1.372.084 1.764.084h1.204c.242 0 .644-.028 1.204-.084zm3.502 19.684c-.336 0-.84.028-1.512.084-.093 0-.15-.028-.168-.084 0-.075.056-.112.168-.112.672-.037 1.176-.233 1.512-.588.336-.373.504-1.017.504-1.932V12.818c0-.915-.168-1.55-.504-1.904-.336-.373-.84-.579-1.512-.616-.112 0-.168-.028-.168-.084.019-.075.075-.112.168-.112.672.056 1.176.084 1.512.084h7.84c1.157 0 2.361-.075 3.612-.224.336-.056.588-.084.756-.084.149 0 .261.047.336.14.093.075.149.233.168.476.037 1.568.252 3.836.644 6.804.019.093 0 .14-.056.14-.037 0-.065-.037-.084-.112-.448-1.885-.812-3.192-1.092-3.92-.28-.728-.616-1.297-1.008-1.708-.485-.541-1.26-.896-2.324-1.064-1.064-.168-2.707-.252-4.928-.252-.448 0-.672.308-.672.924v7.28c0 .187.037.355.112.504.093.13.243.196.448.196 1.437 0 2.352-.028 2.744-.084.336-.037.607-.13.812-.28.224-.168.439-.448.644-.84.205-.41.42-1.008.644-1.792.019-.112.056-.168.112-.168s.075.056.056.168c-.13.728-.196 1.596-.196 2.604a23 23 0 00.336 3.948c.019.093 0 .15-.056.168-.056 0-.093-.056-.112-.168-.355-1.176-.7-1.997-1.036-2.464-.336-.485-.737-.756-1.204-.812-.579-.056-1.493-.084-2.744-.084a.475.475 0 00-.448.252 1.11 1.11 0 00-.112.504v8.036c0 .877.29 1.316.868 1.316 2.277 0 4.041-.103 5.292-.308 1.25-.224 2.137-.588 2.66-1.092.467-.43.849-1.055 1.148-1.876.317-.84.625-2.044.924-3.612.019-.13.056-.196.112-.196.075 0 .093.075.056.224-.373 2.427-.579 4.676-.616 6.748-.019.243-.075.401-.168.476a.53.53 0 01-.392.14c-.075 0-.28-.019-.616-.056a33.857 33.857 0 00-4.2-.252h-8.26zm34.998-3.22c0-.075.009-.13.028-.168.037-.056.075-.084.112-.084.019 0 .037.028.056.084.019.037.019.103 0 .196-.056 1.027-.364 1.876-.924 2.548-.541.653-1.251.98-2.128.98-.933 0-1.717-.42-2.352-1.26-.616-.859-1.092-2.203-1.428-4.032-.28-1.381-.728-2.333-1.344-2.856-.616-.523-1.419-.803-2.408-.84h-1.848c-.093 0-.14-.028-.14-.084 0-.056.047-.093.14-.112l1.764-.028c1.755-.093 3.061-.57 3.92-1.428.877-.859 1.316-2.147 1.316-3.864 0-1.587-.485-2.847-1.456-3.78-.971-.952-2.343-1.447-4.116-1.484l-1.904-.056c-.336-.019-.579.056-.728.224-.149.15-.224.41-.224.784v15.848c0 .915.168 1.559.504 1.932.336.355.84.55 1.512.588.112 0 .159.037.14.112 0 .056-.047.084-.14.084a19.937 19.937 0 00-1.512-.084h-3.696c-.336 0-.84.028-1.512.084-.093 0-.149-.028-.168-.084 0-.075.056-.112.168-.112.672-.037 1.176-.233 1.512-.588.336-.373.504-1.017.504-1.932V12.818c0-.915-.177-1.55-.532-1.904-.336-.373-.84-.57-1.512-.588-.112-.019-.168-.056-.168-.112.019-.056.084-.084.196-.084.28 0 .513.01.7.028l.812.028c.859 0 1.96-.019 3.304-.056a172.01 172.01 0 013.388-.056c2.557 0 4.517.513 5.88 1.54 1.363 1.027 2.044 2.399 2.044 4.116 0 1.643-.532 2.903-1.596 3.78-1.064.859-2.52 1.363-4.368 1.512l-.672.028.42.028c.821.019 1.512.103 2.072.252.579.15 1.101.467 1.568.952.467.485.821 1.223 1.064 2.212.317 1.344.616 2.305.896 2.884.299.579.709.868 1.232.868.467 0 .831-.13 1.092-.392.261-.28.439-.71.532-1.288zm3.703-4.732c.037-.15.084-.224.14-.224.018 0 .037.028.056.084.018.037.018.103 0 .196-.038.336-.056.821-.056 1.456 0 2.184.476 3.799 1.428 4.844.952 1.027 2.389 1.54 4.312 1.54 1.213 0 2.277-.261 3.192-.784.914-.541 1.372-1.54 1.372-2.996 0-1.25-.458-2.296-1.372-3.136-.896-.84-2.184-1.67-3.864-2.492-1.232-.653-2.24-1.241-3.024-1.764-.766-.523-1.382-1.101-1.848-1.736a3.775 3.775 0 01-.672-2.184c.018-.784.317-1.55.896-2.296.578-.747 1.409-1.353 2.492-1.82 1.101-.485 2.38-.728 3.836-.728.896 0 1.782.13 2.66.392.877.261 1.596.635 2.156 1.12.578.467.868 1.008.868 1.624 0 .093-.019.233-.056.42l-1.008 4.2c-.019.112-.056.168-.112.168-.075 0-.103-.084-.084-.252.074-.523.112-1.083.112-1.68 0-1.792-.439-3.155-1.316-4.088-.859-.952-2.147-1.428-3.864-1.428-1.512 0-2.576.252-3.192.756-.598.504-.896 1.26-.896 2.268 0 .69.196 1.297.588 1.82.41.523.942.999 1.596 1.428.672.41 1.586.915 2.744 1.512 1.269.635 2.305 1.223 3.108 1.764a7.205 7.205 0 012.016 1.96c.56.784.84 1.699.84 2.744 0 1.045-.318 2.007-.952 2.884-.635.859-1.531 1.54-2.688 2.044-1.158.504-2.502.756-4.032.756-1.214 0-2.324-.168-3.332-.504-.99-.355-1.764-.812-2.324-1.372-.56-.579-.84-1.185-.84-1.82 0-.168.009-.299.028-.392l1.092-4.284z" fill="#44413F"/><circle cx="148.561" cy="20" r="2.5" fill="#F0B8BE"/><path d="M163.781 30.163c-.952 0-1.932-.13-2.94-.392-.934-.243-1.811-.728-2.632-1.456-.766-.71-1.148-1.577-1.148-2.604 0-.915.345-1.605 1.036-2.072.709-.485 1.568-.672 2.576-.56-.635.747-.952 1.708-.952 2.884 0 .99.438 1.895 1.316 2.716.877.803 1.885 1.204 3.024 1.204 1.736 0 3.089-.588 4.06-1.764.989-1.195 1.484-2.688 1.484-4.48 0-1.643-.486-2.959-1.456-3.948-.971-.99-2.287-1.484-3.948-1.484-1.923 0-3.874.719-5.852 2.156l-.336-.168 2.968-10.304 6.692 1.12c1.4.28 2.464.345 3.192.196.728-.15 1.288-.588 1.68-1.316.112-.093.186-.065.224.084-.318 1.699-1.036 2.837-2.156 3.416-1.12.579-2.763.644-4.928.196l-5.18-.98-2.072 7.28c1.026-.747 2.193-1.344 3.5-1.792 1.306-.467 2.566-.7 3.78-.7 2.165 0 3.938.541 5.32 1.624 1.418 1.083 2.128 2.548 2.128 4.396 0 2.035-.85 3.668-2.548 4.9-1.68 1.232-3.958 1.848-6.832 1.848zm23.064-11.004c1.55.635 2.754 1.39 3.612 2.268.859.877 1.288 1.839 1.288 2.884 0 1.661-.765 3.052-2.296 4.172-1.549 1.101-3.341 1.652-5.376 1.652-2.146 0-3.901-.485-5.264-1.456-1.344-.99-2.016-2.23-2.016-3.724 0-1.045.402-2.007 1.204-2.884.803-.877 1.904-1.568 3.304-2.072-2.445-1.27-3.668-2.912-3.668-4.928 0-1.475.644-2.707 1.932-3.696a7.304 7.304 0 014.48-1.484c2.054 0 3.706.457 4.956 1.372 1.251.896 1.876 1.988 1.876 3.276 0 1.941-1.344 3.481-4.032 4.62zm-6.86-5.572c0 .99.271 1.82.812 2.492.56.672 1.494 1.279 2.8 1.82l2.492.98c1.568-1.25 2.352-2.753 2.352-4.508 0-1.25-.401-2.24-1.204-2.968-.802-.747-1.941-1.12-3.416-1.12-1.082 0-1.997.327-2.744.98-.728.653-1.092 1.428-1.092 2.324zm9.408 12.376c0-1.81-1.306-3.239-3.92-4.284l-2.94-1.12c-.242-.056-.42-.13-.532-.224-1.904 1.213-2.856 2.772-2.856 4.676 0 1.363.476 2.473 1.428 3.332.971.84 2.268 1.26 3.892 1.26 1.568 0 2.782-.336 3.64-1.008.859-.69 1.288-1.568 1.288-2.632z" fill="#44413F"/><path stroke="#DACFD0" d="M4.255 38.706h183m-183-37.412h183"/></svg>