<svg width="140" height="25" fill="none" xmlns="http://www.w3.org/2000/svg"><g clip-path="url(#clip0_3_25672)"><path d="M38.291 15.2c0 .688-.195 1.247-.586 1.677-.391.43-.958.705-1.7.826l2.238 2.683v.348h-2.445l-2.383-2.967h-1.26v2.967h-2.163v-8.462h5.146c.978 0 1.748.25 2.31.748.562.5.843 1.183.843 2.051v.13zm-2.2-.142c0-.533-.334-.8-1.002-.8h-2.933V16h2.933c.326 0 .575-.069.746-.206.17-.138.256-.34.256-.607v-.129zm11.033-2.786v1.974h-5.12v1.277h4.876v1.948h-4.877v1.29h5.121v1.973H39.84v-8.462h7.284zm10.019 8.114v.348h-2.139l-.623-1.56h-3.74l-.624 1.56h-2.139v-.348l3.435-8.114h2.395l3.435 8.114zm-3.52-3.135l-1.112-2.799-1.113 2.8h2.225zm8.562-4.979c1.532 0 2.685.353 3.46 1.058.782.697 1.173 1.737 1.173 3.122v.116c0 2.777-1.544 4.166-4.633 4.166h-4.107v-8.462h4.107zm0 6.424c.848 0 1.463-.168 1.846-.503.391-.335.587-.864.587-1.587v-.18c0-.714-.2-1.243-.6-1.587-.399-.352-1.014-.529-1.845-.529h-1.931v4.386h1.943zm13.641-6.424v.348l-3.41 4.825v3.29h-2.164v-3.29L66.83 12.62v-.348h2.298l2.212 3.2 2.2-3.2h2.286zm4.93 8.63c-.985 0-1.853-.176-2.603-.529-.742-.361-1.316-.869-1.723-1.522-.4-.654-.599-1.419-.599-2.296v-.09c0-.878.2-1.643.599-2.297a3.964 3.964 0 011.723-1.522c.75-.36 1.618-.542 2.603-.542.922 0 1.749.16 2.481.478.734.318 1.305.756 1.712 1.316.416.559.624 1.19.624 1.896v.103H83.36v-.103c0-.473-.24-.852-.72-1.136-.474-.283-1.101-.425-1.883-.425-1.818 0-2.726.735-2.726 2.206v.154c0 .731.224 1.278.672 1.639.448.36 1.132.541 2.053.541.807 0 1.443-.137 1.907-.412.465-.276.697-.654.697-1.135v-.09h2.213v.09c0 .705-.208 1.337-.624 1.896-.407.559-.978.997-1.712 1.316-.732.31-1.56.464-2.48.464zm10.623 0c-.97 0-1.826-.176-2.567-.529-.733-.361-1.3-.869-1.7-1.522-.399-.662-.598-1.428-.598-2.296v-.09c0-.878.2-1.643.599-2.297a3.91 3.91 0 011.699-1.522c.741-.36 1.597-.542 2.567-.542.986 0 1.845.181 2.579.542a3.91 3.91 0 011.698 1.522c.4.654.6 1.42.6 2.297v.09c0 .877-.2 1.642-.6 2.296-.4.653-.965 1.16-1.698 1.522-.734.353-1.593.529-2.58.529zm0-2.129c1.784 0 2.676-.726 2.676-2.18v-.154c0-.723-.228-1.269-.684-1.639-.449-.378-1.112-.567-1.992-.567-.864 0-1.525.19-1.98.567-.457.379-.685.925-.685 1.639v.154c0 .714.224 1.256.672 1.626.449.37 1.112.554 1.993.554zm10.339-6.5c1.532 0 2.685.352 3.46 1.057.781.697 1.173 1.737 1.173 3.122v.116c0 2.777-1.544 4.166-4.633 4.166h-4.107v-8.462h4.107zm0 6.423c.848 0 1.463-.168 1.846-.503.391-.335.587-.864.587-1.587v-.18c0-.714-.2-1.243-.599-1.587-.4-.352-1.014-.529-1.846-.529h-1.93v4.386h1.942zm13.277-6.424v1.974h-5.122v1.277h4.877v1.948h-4.877v1.29h5.122v1.973h-7.285v-8.462h7.285zm2.721 8.63c-.358 0-.652-.116-.88-.348-.228-.241-.343-.546-.343-.916s.115-.667.343-.89c.228-.233.522-.349.88-.349.367 0 .66.116.88.349.228.223.342.52.342.89 0 .378-.114.683-.342.916-.22.232-.513.348-.88.348zm11.208-5.702c0 .688-.196 1.247-.587 1.677-.391.43-.957.705-1.699.826l2.237 2.683v.348h-2.444l-2.384-2.967h-1.258v2.967h-2.164v-8.462h5.145c.978 0 1.749.25 2.311.748.562.5.843 1.183.843 2.051v.13zm-2.2-.142c0-.533-.334-.8-1.003-.8h-2.932V16h2.932c.327 0 .575-.069.747-.206.17-.138.256-.34.256-.607v-.129zm7.721 5.844c-.823 0-1.545-.168-2.163-.503a3.527 3.527 0 01-1.431-1.458c-.334-.628-.501-1.354-.501-2.18v-4.489h2.163V16.8c0 .645.164 1.135.489 1.47.326.336.807.503 1.443.503.644 0 1.128-.167 1.454-.503.326-.335.489-.825.489-1.47v-4.528h2.164v4.49c0 .833-.172 1.564-.514 2.192-.334.62-.81 1.1-1.43 1.445-.619.335-1.34.503-2.163.503zM33.326 2.118c.535 0 .957.136 1.268.408.31.266.466.628.466 1.084v.092c0 .456-.155.82-.466 1.092-.31.267-.733.4-1.268.4h-2.215v1.968h-.728V2.118h2.943zm-.014 2.392c.32 0 .568-.07.743-.208.18-.144.27-.343.27-.6V3.61c0-.256-.09-.454-.27-.592-.175-.144-.423-.215-.743-.215h-2.2V4.51h2.2zm6.952 2.537v.115h-.743l-.568-1.276h-2.696l-.568 1.276h-.743v-.115l2.258-4.929h.802l2.258 4.929zM38.64 5.194L37.605 2.88 36.57 5.194h2.07zm6.423-.592c.257.102.454.243.59.423.136.18.204.387.204.623v.092c0 .482-.221.856-.663 1.122-.437.262-1.061.393-1.873.393-.879 0-1.55-.175-2.01-.523-.457-.354-.685-.87-.685-1.546v-.069h.736v.07c0 .466.157.81.473 1.03.32.215.82.323 1.5.323.608 0 1.057-.067 1.349-.2.291-.134.437-.341.437-.623v-.085a.509.509 0 00-.328-.5c-.218-.102-.59-.153-1.115-.153h-1.275v-.685h1.224c.486 0 .836-.054 1.05-.161a.544.544 0 00.327-.523v-.085c0-.522-.575-.784-1.726-.784-.642 0-1.117.113-1.428.338-.311.226-.467.567-.467 1.023v.062h-.728v-.062c0-.671.226-1.184.677-1.538.457-.359 1.11-.538 1.96-.538.777 0 1.38.128 1.807.384.428.257.641.616.641 1.077v.1c0 .456-.226.794-.677 1.015zm4.743-2.484c.534 0 .957.136 1.268.408.31.266.466.628.466 1.084v.092c0 .456-.156.82-.466 1.092-.311.267-.734.4-1.268.4H47.59v1.968h-.729V2.118h2.944zM49.79 4.51c.32 0 .569-.07.743-.208.18-.144.27-.343.27-.6V3.61c0-.256-.09-.454-.27-.592-.174-.144-.422-.215-.743-.215h-2.2V4.51h2.2zm6.953 2.537v.115H56l-.569-1.276h-2.695l-.569 1.276h-.743v-.115l2.259-4.929h.801l2.259 4.929zm-1.625-1.853L54.083 2.88 53.05 5.194h2.069zm6.663-3.076v.685h-3.497v1.414h2.135c.549 0 .974.126 1.275.377.306.246.459.595.459 1.046v.1c0 .446-.153.794-.46 1.046-.305.25-.73.376-1.274.376h-2.864V2.118h4.226zm-1.37 4.36c.311 0 .557-.067.736-.2a.63.63 0 00.277-.538v-.1c0-.23-.09-.41-.27-.538-.18-.134-.427-.2-.743-.2h-2.127v1.576h2.127zm5.393.777c-.549 0-1.03-.105-1.442-.316a2.264 2.264 0 01-.955-.892c-.223-.384-.335-.835-.335-1.353v-.1c0-.518.112-.969.335-1.353.224-.39.542-.69.955-.9.412-.21.893-.315 1.442-.315.549 0 1.027.105 1.435.315.413.21.731.51.955.9.223.384.335.835.335 1.353v.1c0 .518-.112.969-.335 1.353a2.263 2.263 0 01-.955.892c-.408.21-.886.316-1.435.316zm0-.715c.627 0 1.115-.162 1.465-.485.35-.323.524-.771.524-1.345v-.123c0-.58-.175-1.03-.524-1.354-.35-.328-.838-.492-1.465-.492-.627 0-1.117.164-1.472.492-.35.323-.524.774-.524 1.353v.124c0 .574.175 1.022.524 1.345.355.323.846.485 1.472.485zm3.065-3.737v-.685h4.86v.685h-2.07v4.36h-.72v-4.36h-2.07zm10.35-.57l-2.26 2.361 2.186 2.453v.115H78.3l-1.982-2.206h-1.1v2.206h-.729V2.118h.729v2.146h1.086l2.04-2.146h.874v.116zm5.913 4.814v.115h-.743l-.569-1.276h-2.695l-.569 1.276h-.742v-.115l2.258-4.929h.802l2.258 4.929zm-1.625-1.853L82.473 2.88l-1.035 2.314h2.069zm7.492 2.06c-.558 0-1.046-.102-1.464-.307a2.303 2.303 0 01-.969-.892c-.223-.384-.335-.833-.335-1.345v-.131c0-.513.112-.961.335-1.346.228-.384.552-.682.969-.892.418-.21.906-.315 1.464-.315.506 0 .96.09 1.363.27.408.179.726.427.954.745.233.313.35.664.35 1.053v.07h-.736v-.07a1.07 1.07 0 00-.248-.692 1.645 1.645 0 00-.692-.484A2.62 2.62 0 0091 2.74c-.652 0-1.154.159-1.509.477-.35.318-.524.769-.524 1.353v.146c0 .585.175 1.036.524 1.354.355.312.857.469 1.508.469.374 0 .708-.057.999-.17.296-.118.524-.279.684-.484a1.07 1.07 0 00.248-.692v-.077h.736v.077c0 .39-.117.74-.35 1.053-.228.313-.546.56-.954.739a3.323 3.323 0 01-1.363.269zm8.314-.207v.115h-.744l-.568-1.276h-2.696l-.568 1.276h-.744v-.115l2.26-4.929h.8l2.26 4.929zm-1.626-1.853L96.653 2.88 95.62 5.194h2.068zm3.166-3.076v3.999l3.17-3.999h.728v5.044h-.728V3.164l-3.17 3.998h-.728V2.118h.728zm1.589-.53c-.506 0-.889-.09-1.152-.27-.262-.179-.393-.44-.393-.784V.48h.641v.054c0 .139.078.246.234.323.155.072.378.108.67.108.282 0 .495-.036.641-.108.15-.077.226-.184.226-.323V.48h.678v.054c0 .349-.132.613-.394.792-.257.175-.641.262-1.151.262zm3.07 1.215v-.685h4.859v.685h-2.069v4.36h-.721v-4.36h-2.069zm9.838 4.244v.115h-.743l-.569-1.276h-2.695l-.569 1.276h-.743v-.115l2.259-4.929h.801l2.259 4.929zm-1.625-1.853L112.69 2.88l-1.034 2.314h2.069z" fill="#74645A"/><path fill-rule="evenodd" clip-rule="evenodd" d="M0 2.154c.01.07.022.152.03.224.014.131.05.363.078.516.028.153.062.45.075.662.013.21.04.467.059.568.02.102.053.335.074.517.022.182.05.397.065.476.04.22.095.72.114 1.045.009.16.037.386.063.503.025.116.058.33.073.476.015.145.05.372.075.503.027.13.055.375.064.542.008.167.036.447.063.622.026.175.065.454.086.622.021.167.055.393.074.503.02.109.05.377.066.595.016.218.052.54.08.714.027.175.065.443.083.596.033.28.077.544.096.577.006.01.024.22.04.468.016.247.05.557.075.688.025.13.054.327.063.436.01.11.04.312.066.45a9 9 0 01.086.754c.021.277.056.598.076.715.02.116.06.39.088.608.028.219.06.44.074.49.012.051.04.308.06.57.02.262.053.554.074.648.02.094.056.326.079.515.023.19.056.41.075.49.018.08.046.335.061.568.03.445.088.926.127 1.033.012.034.05.081.082.104.053.037 1.059.04 9.946.041 8.761 0 9.894-.004 9.945-.04.098-.067.115-.14.149-.607.017-.248.049-.54.07-.65.02-.109.057-.359.08-.555a5.68 5.68 0 01.05-.373c.021-.037.063-.393.098-.85.022-.273.046-.514.055-.537.009-.025-.008-.069-.042-.106l-.057-.064h-8.572c-5.783-.001-8.588-.01-8.62-.028-.055-.031-.063-.074-.1-.53a4.143 4.143 0 00-.063-.476 5.693 5.693 0 01-.076-.525 4.416 4.416 0 00-.06-.437c-.026-.073-.046-.257-.078-.717a4.515 4.515 0 00-.06-.516c-.02-.08-.048-.27-.063-.42a7.195 7.195 0 00-.076-.53 9.344 9.344 0 01-.09-.784 8.367 8.367 0 00-.075-.701 9.766 9.766 0 01-.086-.57 9.653 9.653 0 00-.074-.515 6.15 6.15 0 01-.053-.516 6.389 6.389 0 00-.052-.516 14.45 14.45 0 01-.084-.57 7.143 7.143 0 00-.087-.542 6.435 6.435 0 01-.066-.621c-.022-.291-.05-.595-.063-.675-.11-.667-.151-1.04-.12-1.062.02-.012 3.752-.02 8.296-.016l8.261.006.008.101c.004.056-.015.21-.043.344a4.436 4.436 0 00-.066.442c-.01.109-.038.311-.065.45-.026.138-.06.418-.073.621a6.62 6.62 0 01-.05.516c-.015.08-.058.377-.096.66-.058.432-.077.518-.118.546-.038.025-1.348.036-6.014.047-4.235.011-5.973.024-5.992.044-.019.02-.03.581-.034 1.836-.006 1.49 0 1.813.027 1.838.046.04 2.765.058 9.626.065 5.068.005 5.486.002 5.525-.039.03-.031.05-.139.075-.383.018-.187.045-.406.059-.486.014-.08.049-.33.077-.556.028-.225.062-.445.075-.49a6.86 6.86 0 00.062-.607c.022-.29.056-.588.076-.661.02-.073.048-.259.063-.411.016-.153.039-.332.052-.397.052-.267.072-.428.097-.78a8.99 8.99 0 01.064-.61c.02-.13.066-.44.1-.687l.087-.622c.013-.095.037-.357.051-.582a4.06 4.06 0 01.062-.536 4.28 4.28 0 00.076-.49c.023-.2.058-.429.078-.509.02-.08.048-.318.061-.53.014-.21.047-.526.073-.7.027-.175.066-.452.087-.616a7.54 7.54 0 01.062-.404c.02-.096.017-.111-.034-.146-.049-.034-1.375-.039-10.525-.038H3.72l-.02-.026H0z" fill="#F48689"/></g><defs><clipPath id="clip0_3_25672"><path fill="#fff" transform="translate(0 .412)" d="M0 0h140v24H0z"/></clipPath></defs></svg>