<svg width="15" height="18" fill="none" xmlns="http://www.w3.org/2000/svg"><path fill-rule="evenodd" clip-rule="evenodd" d="M13.158 12.7l-2.02.735a.263.263 0 01-.333-.154l-1.047-2.832h-4.9l-1.044 2.826a.264.264 0 01-.332.155l-2.017-.734a.248.248 0 01-.161-.32l4.078-10.7A2.097 2.097 0 018.451.765c.342.223.611.54.775.913l4.093 10.706a.25.25 0 01-.074.27.262.262 0 01-.087.048zm-5.53-8.323l-.321-.9V3.47L5.462 8.433h3.692L7.628 4.377zM1.303 15.433h12.032a.982.982 0 01.954.984.987.987 0 01-.954.985H1.303a.982.982 0 01-.954-.985.987.987 0 01.954-.984z" fill="#46403B"/></svg>