<svg width="33" height="12" fill="none" xmlns="http://www.w3.org/2000/svg"><path fill-rule="evenodd" clip-rule="evenodd" d="M29.922 10.93s-.23-1.4-.307-1.752h-3.318c-.092.275-.55 1.752-.55 1.752h-2.708l3.84-9.156a1.271 1.271 0 011.345-.84h2l2.1 10h-2.4l-.002-.004zm-1.33-6.44l-.185-.855c-.122.381-.352.976-.336.961 0 0-.826 2.212-1.025 2.792h2.141c-.107-.503-.596-2.899-.596-2.899zm-5.569-1.25a4.334 4.334 0 00-1.927-.383c-1.025 0-1.484.427-1.5.854 0 .474.551.778 1.468 1.236 1.484.7 2.172 1.572 2.157 2.716-.015 2.06-1.774 3.4-4.5 3.4a7.895 7.895 0 01-2.875-.533l.351-2.243.352.168c.752.37 1.58.553 2.417.534a1.35 1.35 0 001.56-.977c0-.442-.336-.763-1.346-1.25-.979-.473-2.279-1.267-2.264-2.7.016-1.938 1.805-3.3 4.36-3.3a6.543 6.543 0 012.325.41L23.25 3.34l-.226-.1zm-11.38 7.69l1.622-10h2.585l-1.62 10h-2.587zm-6.225 0L3.411 3.402l-.157-.61c.354.176.69.388 1 .632.942.768 1.747 1.69 2.381 2.726l-.008-.043.05.26.276 1.372L9.487.93h2.738l-4.069 10H5.414h.004z" fill="#46403B"/><path opacity=".35" fill-rule="evenodd" clip-rule="evenodd" d="M4.25 3.424a5.903 5.903 0 00-1-.633l-.148-.554c-.73-.43-1.51-.769-2.323-1.009v-.31H4.75a1.043 1.043 0 011.015.825l.86 4.407A10.801 10.801 0 004.25 3.424z" fill="#46403B"/></svg>