<svg width="63" height="10" fill="none" xmlns="http://www.w3.org/2000/svg"><path d="M6.21 8.889V3.033h3.427V.902H.289v2.13h3.426V8.89H6.21zM13.13.902h-2.495v7.987h2.495V.902zm1.826 0v7.987h2.296V4.476l4.274 4.413h2.129V.902H21.36v4.38L17.185.902h-2.229zM28.56 5.869l2.878 3.02h3.21l-4.009-4.161L34.497.902H31.47l-2.911 3.004h-.665V.902h-2.412v7.987h2.412v-3.02h.665zM39.61.684c-3.244 0-5.19 1.846-5.19 4.229 0 2.382 1.946 4.228 5.19 4.228 3.227 0 5.173-1.846 5.173-4.228 0-2.383-1.946-4.23-5.173-4.23zm0 6.51c-1.614 0-2.645-.973-2.645-2.281 0-1.31 1.031-2.266 2.645-2.266 1.596 0 2.644.957 2.644 2.266 0 1.308-1.048 2.282-2.644 2.282zM53.929.903h-8V8.89h2.412V6.104h5.239V4.342h-5.239v-1.41h5.588V.903zm9.08 0h-8V8.89h2.412V6.104h5.239V4.342h-5.239v-1.41h5.588V.903z" fill="#46403B"/></svg>