<svg width="35" height="10" fill="none" xmlns="http://www.w3.org/2000/svg"><path fill-rule="evenodd" clip-rule="evenodd" d="M9.019 9.41V4.065h-.244L7.035 9.41H4.963L3.227 4.065h-.242V9.41H.01v-9h2.976a1.722 1.722 0 011.66 1.186l1.223 4.16h.257l1.225-4.16A1.723 1.723 0 019.019.41h2.976v9H9.019zm10.968 0V4.065h-.227L17.88 8.55a1.47 1.47 0 01-.54.627 1.466 1.466 0 01-.793.233h-2.525v-9h3v5.345h.238l1.905-4.49.015-.034a1.455 1.455 0 011.312-.817h2.525v9H19.99l-.002-.004zm11.569-2.986h-3.528V9.41h-3V4.403h9.953a3.596 3.596 0 01-3.425 2.021z" fill="#46403B"/><path opacity=".55" fill-rule="evenodd" clip-rule="evenodd" d="M34.928 3.416h-5.412c-2.472 0-4.528-1.3-4.961-3.006h7.023C33.468.41 35 1.527 35 2.904c0 .173-.024.345-.072.512z" fill="#46403B"/></svg>